<mxfile host="app.diagrams.net" modified="2023-09-14T16:43:04.977Z" agent="Mozilla/5.0 (Windows NT 10.0; Win64; x64) AppleWebKit/537.36 (KHTML, like Gecko) Chrome/115.0.0.0 Safari/537.36" etag="XDhri4AlX_ysvGE7wmpu" version="21.7.5" type="google">
  <diagram name="Страница — 1" id="DwaOnIKBy1T7MoQ8SONi">
    <mxGraphModel grid="1" page="1" gridSize="10" guides="1" tooltips="1" connect="1" arrows="1" fold="1" pageScale="1" pageWidth="827" pageHeight="1169" math="0" shadow="0">
      <root>
        <mxCell id="0" />
        <mxCell id="1" parent="0" />
        <mxCell id="1gdIlJtSvI5grktAOfHR-15" style="edgeStyle=orthogonalEdgeStyle;rounded=0;orthogonalLoop=1;jettySize=auto;html=1;entryX=0;entryY=0.5;entryDx=0;entryDy=0;" edge="1" parent="1" source="1gdIlJtSvI5grktAOfHR-1" target="1gdIlJtSvI5grktAOfHR-14">
          <mxGeometry relative="1" as="geometry" />
        </mxCell>
        <mxCell id="1gdIlJtSvI5grktAOfHR-23" style="edgeStyle=orthogonalEdgeStyle;rounded=0;orthogonalLoop=1;jettySize=auto;html=1;entryX=0;entryY=0.5;entryDx=0;entryDy=0;" edge="1" parent="1" source="1gdIlJtSvI5grktAOfHR-1" target="1gdIlJtSvI5grktAOfHR-16">
          <mxGeometry relative="1" as="geometry" />
        </mxCell>
        <mxCell id="1gdIlJtSvI5grktAOfHR-24" style="edgeStyle=orthogonalEdgeStyle;rounded=0;orthogonalLoop=1;jettySize=auto;html=1;entryX=0.007;entryY=0.414;entryDx=0;entryDy=0;entryPerimeter=0;" edge="1" parent="1" source="1gdIlJtSvI5grktAOfHR-1" target="1gdIlJtSvI5grktAOfHR-17">
          <mxGeometry relative="1" as="geometry" />
        </mxCell>
        <mxCell id="1gdIlJtSvI5grktAOfHR-27" style="edgeStyle=orthogonalEdgeStyle;rounded=0;orthogonalLoop=1;jettySize=auto;html=1;entryX=0;entryY=0.5;entryDx=0;entryDy=0;" edge="1" parent="1" source="1gdIlJtSvI5grktAOfHR-1" target="1gdIlJtSvI5grktAOfHR-18">
          <mxGeometry relative="1" as="geometry" />
        </mxCell>
        <mxCell id="1gdIlJtSvI5grktAOfHR-1" value="Сотрудник" style="shape=umlActor;verticalLabelPosition=top;verticalAlign=bottom;html=1;labelPosition=center;align=center;fillColor=#f8cecc;strokeColor=#b85450;" vertex="1" parent="1">
          <mxGeometry x="70" y="10" width="30" height="60" as="geometry" />
        </mxCell>
        <mxCell id="1gdIlJtSvI5grktAOfHR-31" style="edgeStyle=orthogonalEdgeStyle;rounded=0;orthogonalLoop=1;jettySize=auto;html=1;exitX=0.5;exitY=0.5;exitDx=0;exitDy=0;exitPerimeter=0;" edge="1" parent="1" source="1gdIlJtSvI5grktAOfHR-2" target="1gdIlJtSvI5grktAOfHR-30">
          <mxGeometry relative="1" as="geometry" />
        </mxCell>
        <mxCell id="1gdIlJtSvI5grktAOfHR-2" value="Кладовщик" style="shape=umlActor;verticalLabelPosition=top;verticalAlign=bottom;html=1;labelPosition=right;align=left;fillColor=#e1d5e7;strokeColor=#9673a6;" vertex="1" parent="1">
          <mxGeometry x="430" y="385" width="30" height="60" as="geometry" />
        </mxCell>
        <mxCell id="1gdIlJtSvI5grktAOfHR-3" value="Клиент&lt;br&gt;" style="shape=umlActor;verticalLabelPosition=top;verticalAlign=bottom;html=1;labelPosition=right;align=left;fillColor=#d5e8d4;strokeColor=#82b366;" vertex="1" parent="1">
          <mxGeometry x="640" y="190" width="30" height="60" as="geometry" />
        </mxCell>
        <mxCell id="1gdIlJtSvI5grktAOfHR-33" style="edgeStyle=orthogonalEdgeStyle;rounded=0;orthogonalLoop=1;jettySize=auto;html=1;exitX=1;exitY=0.5;exitDx=0;exitDy=0;entryX=0.5;entryY=0;entryDx=0;entryDy=0;entryPerimeter=0;" edge="1" parent="1" source="1gdIlJtSvI5grktAOfHR-14" target="1gdIlJtSvI5grktAOfHR-3">
          <mxGeometry relative="1" as="geometry" />
        </mxCell>
        <mxCell id="1gdIlJtSvI5grktAOfHR-14" value="Принять заказ" style="ellipse;whiteSpace=wrap;html=1;fillColor=#f8cecc;strokeColor=#b85450;" vertex="1" parent="1">
          <mxGeometry x="180" y="55" width="140" height="70" as="geometry" />
        </mxCell>
        <mxCell id="1gdIlJtSvI5grktAOfHR-16" value="Группировать&amp;nbsp;&lt;br&gt;заказ по типам&lt;br&gt;компьютеров" style="ellipse;whiteSpace=wrap;html=1;fillColor=#f8cecc;strokeColor=#b85450;" vertex="1" parent="1">
          <mxGeometry x="180" y="160" width="140" height="70" as="geometry" />
        </mxCell>
        <mxCell id="1gdIlJtSvI5grktAOfHR-17" value="Собирать и&amp;nbsp;&lt;br&gt;тестировать&lt;br&gt;компьютеры" style="ellipse;whiteSpace=wrap;html=1;fillColor=#f8cecc;strokeColor=#b85450;" vertex="1" parent="1">
          <mxGeometry x="180" y="270" width="140" height="70" as="geometry" />
        </mxCell>
        <mxCell id="1gdIlJtSvI5grktAOfHR-29" style="edgeStyle=orthogonalEdgeStyle;rounded=0;orthogonalLoop=1;jettySize=auto;html=1;exitX=1;exitY=0.5;exitDx=0;exitDy=0;" edge="1" parent="1" source="1gdIlJtSvI5grktAOfHR-18" target="1gdIlJtSvI5grktAOfHR-2">
          <mxGeometry relative="1" as="geometry" />
        </mxCell>
        <mxCell id="1gdIlJtSvI5grktAOfHR-18" value="Упаковывать&amp;nbsp;&lt;br&gt;компьютеры&amp;nbsp;&lt;br&gt;согласно заказам" style="ellipse;whiteSpace=wrap;html=1;fillColor=#f8cecc;strokeColor=#b85450;" vertex="1" parent="1">
          <mxGeometry x="180" y="380" width="140" height="70" as="geometry" />
        </mxCell>
        <mxCell id="1gdIlJtSvI5grktAOfHR-32" style="edgeStyle=orthogonalEdgeStyle;rounded=0;orthogonalLoop=1;jettySize=auto;html=1;exitX=0.5;exitY=0;exitDx=0;exitDy=0;" edge="1" parent="1" source="1gdIlJtSvI5grktAOfHR-30" target="1gdIlJtSvI5grktAOfHR-3">
          <mxGeometry relative="1" as="geometry" />
        </mxCell>
        <mxCell id="1gdIlJtSvI5grktAOfHR-30" value="Отгрузить&amp;nbsp;&lt;br&gt;заказ" style="ellipse;whiteSpace=wrap;html=1;fillColor=#e1d5e7;strokeColor=#9673a6;" vertex="1" parent="1">
          <mxGeometry x="585" y="380" width="140" height="70" as="geometry" />
        </mxCell>
      </root>
    </mxGraphModel>
  </diagram>
</mxfile>
